<svg  className='logo' viewBox="0 0 644 112" fill="none" xmlns="http://www.w3.org/2000/svg">
<path d="M35.256 109.856C29.208 109.856 23.784 108.848 18.984 106.832C14.184 104.72 10.392 101.84 7.608 98.192C4.824 94.448 3.288 90.176 3 85.376H16.536C16.92 89.312 18.744 92.528 22.008 95.024C25.368 97.52 29.736 98.768 35.112 98.768C40.104 98.768 44.04 97.664 46.92 95.456C49.8 93.248 51.24 90.464 51.24 87.104C51.24 83.648 49.704 81.104 46.632 79.472C43.56 77.744 38.808 76.064 32.376 74.432C26.52 72.896 21.72 71.36 17.976 69.824C14.328 68.192 11.16 65.84 8.472 62.768C5.88 59.6 4.584 55.472 4.584 50.384C4.584 46.352 5.784 42.656 8.184 39.296C10.584 35.936 13.992 33.296 18.408 31.376C22.824 29.36 27.864 28.352 33.528 28.352C42.264 28.352 49.32 30.56 54.696 34.976C60.072 39.392 62.952 45.44 63.336 53.12H50.232C49.944 48.992 48.264 45.68 45.192 43.184C42.216 40.688 38.184 39.44 33.096 39.44C28.392 39.44 24.648 40.448 21.864 42.464C19.08 44.48 17.688 47.12 17.688 50.384C17.688 52.976 18.504 55.136 20.136 56.864C21.864 58.496 23.976 59.84 26.472 60.896C29.064 61.856 32.616 62.96 37.128 64.208C42.792 65.744 47.4 67.28 50.952 68.816C54.504 70.256 57.528 72.464 60.024 75.44C62.616 78.416 63.96 82.304 64.056 87.104C64.056 91.424 62.856 95.312 60.456 98.768C58.056 102.224 54.648 104.96 50.232 106.976C45.912 108.896 40.92 109.856 35.256 109.856Z" stroke="#FFFCFC" stroke-width="4"/>
<path d="M154.554 66.08C154.554 68.576 154.41 71.216 154.122 74H91.0504C91.5304 81.776 94.1704 87.872 98.9704 92.288C103.866 96.608 109.77 98.768 116.682 98.768C122.346 98.768 127.05 97.472 130.794 94.88C134.634 92.192 137.322 88.64 138.858 84.224H152.97C150.858 91.808 146.634 98 140.298 102.8C133.962 107.504 126.09 109.856 116.682 109.856C109.194 109.856 102.474 108.176 96.5224 104.816C90.6664 101.456 86.0584 96.704 82.6984 90.56C79.3384 84.32 77.6584 77.12 77.6584 68.96C77.6584 60.8 79.2904 53.648 82.5544 47.504C85.8184 41.36 90.3784 36.656 96.2344 33.392C102.186 30.032 109.002 28.352 116.682 28.352C124.17 28.352 130.794 29.984 136.554 33.248C142.314 36.512 146.73 41.024 149.802 46.784C152.97 52.448 154.554 58.88 154.554 66.08ZM141.018 63.344C141.018 58.352 139.914 54.08 137.706 50.528C135.498 46.88 132.474 44.144 128.634 42.32C124.89 40.4 120.714 39.44 116.106 39.44C109.482 39.44 103.818 41.552 99.1144 45.776C94.5064 50 91.8664 55.856 91.1944 63.344H141.018Z" stroke="#FFFCFC" stroke-width="4"/>
<path d="M241.835 29.648V108.56H228.731V96.896C226.235 100.928 222.731 104.096 218.219 106.4C213.803 108.608 208.907 109.712 203.531 109.712C197.387 109.712 191.867 108.464 186.971 105.968C182.075 103.376 178.187 99.536 175.307 94.448C172.523 89.36 171.131 83.168 171.131 75.872V29.648H184.091V74.144C184.091 81.92 186.059 87.92 189.995 92.144C193.931 96.272 199.307 98.336 206.123 98.336C213.131 98.336 218.651 96.176 222.683 91.856C226.715 87.536 228.731 81.248 228.731 72.992V29.648H241.835Z" stroke="#FFFCFC" stroke-width="4"/>
<path d="M302.409 28.208C312.009 28.208 319.785 31.136 325.737 36.992C331.689 42.752 334.665 51.104 334.665 62.048V108.56H321.705V63.92C321.705 56.048 319.737 50.048 315.801 45.92C311.865 41.696 306.489 39.584 299.673 39.584C292.761 39.584 287.241 41.744 283.113 46.064C279.081 50.384 277.065 56.672 277.065 64.928V108.56H263.961V29.648H277.065V40.88C279.657 36.848 283.161 33.728 287.577 31.52C292.089 29.312 297.033 28.208 302.409 28.208Z" stroke="#FFFCFC" stroke-width="4"/>
<path d="M360.246 109.424C357.75 109.424 355.638 108.56 353.91 106.832C352.182 105.104 351.318 102.992 351.318 100.496C351.318 98 352.182 95.888 353.91 94.16C355.638 92.432 357.75 91.568 360.246 91.568C362.646 91.568 364.662 92.432 366.294 94.16C368.022 95.888 368.886 98 368.886 100.496C368.886 102.992 368.022 105.104 366.294 106.832C364.662 108.56 362.646 109.424 360.246 109.424Z" stroke="#FFFCFC" stroke-width="4"/>
<path d="M381.408 68.816C381.408 60.752 383.04 53.696 386.304 47.648C389.568 41.504 394.032 36.752 399.696 33.392C405.456 30.032 411.888 28.352 418.992 28.352C425.136 28.352 430.848 29.792 436.128 32.672C441.408 35.456 445.44 39.152 448.224 43.76V2H461.472V108.56H448.224V93.728C445.632 98.432 441.792 102.32 436.704 105.392C431.616 108.368 425.664 109.856 418.848 109.856C411.84 109.856 405.456 108.128 399.696 104.672C394.032 101.216 389.568 96.368 386.304 90.128C383.04 83.888 381.408 76.784 381.408 68.816ZM448.224 68.96C448.224 63.008 447.024 57.824 444.624 53.408C442.224 48.992 438.96 45.632 434.832 43.328C430.8 40.928 426.336 39.728 421.44 39.728C416.544 39.728 412.08 40.88 408.048 43.184C404.016 45.488 400.8 48.848 398.4 53.264C396 57.68 394.8 62.864 394.8 68.816C394.8 74.864 396 80.144 398.4 84.656C400.8 89.072 404.016 92.48 408.048 94.88C412.08 97.184 416.544 98.336 421.44 98.336C426.336 98.336 430.8 97.184 434.832 94.88C438.96 92.48 442.224 89.072 444.624 84.656C447.024 80.144 448.224 74.912 448.224 68.96Z" stroke="#FFFCFC" stroke-width="4"/>
<path d="M555.617 66.08C555.617 68.576 555.473 71.216 555.185 74H492.113C492.593 81.776 495.233 87.872 500.033 92.288C504.929 96.608 510.833 98.768 517.745 98.768C523.409 98.768 528.113 97.472 531.857 94.88C535.697 92.192 538.385 88.64 539.921 84.224H554.033C551.921 91.808 547.697 98 541.361 102.8C535.025 107.504 527.153 109.856 517.745 109.856C510.257 109.856 503.537 108.176 497.585 104.816C491.729 101.456 487.121 96.704 483.761 90.56C480.401 84.32 478.721 77.12 478.721 68.96C478.721 60.8 480.353 53.648 483.617 47.504C486.881 41.36 491.441 36.656 497.297 33.392C503.249 30.032 510.065 28.352 517.745 28.352C525.233 28.352 531.857 29.984 537.617 33.248C543.377 36.512 547.793 41.024 550.865 46.784C554.033 52.448 555.617 58.88 555.617 66.08ZM542.081 63.344C542.081 58.352 540.977 54.08 538.769 50.528C536.561 46.88 533.537 44.144 529.697 42.32C525.953 40.4 521.777 39.44 517.169 39.44C510.545 39.44 504.881 41.552 500.177 45.776C495.569 50 492.929 55.856 492.257 63.344H542.081Z" stroke="#FFFCFC" stroke-width="4"/>
<path d="M602.29 96.464L626.77 29.648H640.738L609.778 108.56H594.514L563.554 29.648H577.666L602.29 96.464Z" stroke="#FFFCFC" stroke-width="4"/>
</svg>
